<svg width="549" height="825" viewBox="0 0 549 825" fill="none" xmlns="http://www.w3.org/2000/svg">
<path d="M0 49.3028L175.503 17.7808C240.977 6.02103 308.023 6.02103 373.497 17.7808L549 49.3028V650.755C549 663.423 542.155 675.102 531.102 681.292L294.045 814.054C281.902 820.854 267.098 820.854 254.955 814.054L17.8979 681.292C6.84525 675.102 0 663.423 0 650.755V49.3028Z" fill="black"/>
<path d="M213.399 733.341C209.758 731.032 206.917 729.523 204.342 727.57C170.867 702.441 137.482 677.313 104.185 652.008C97.0814 646.591 94.3288 639.044 94.3288 630.254C94.4176 599.354 95.2167 568.366 94.0624 537.466C92.9969 507.898 105.605 486.233 128.958 470.339C152.044 454.623 175.929 440.061 199.636 425.233C232.223 404.811 264.898 384.566 297.396 364.055C303.966 359.882 309.916 354.644 315.953 349.582C330.782 337.063 336.109 320.281 336.287 301.724C336.642 267.805 336.464 233.975 336.464 200.057C336.464 198.192 336.731 196.239 336.908 194.374C337.175 191.888 338.418 191 341.082 191C377.486 191.089 413.891 191.089 450.296 191C453.581 191 454.913 192.51 455.445 195.262C455.801 197.127 455.801 199.08 455.801 201.034C455.801 245.252 455.179 289.559 455.978 333.777C456.6 367.163 443.903 393.978 418.33 414.134C399.773 428.696 379.884 441.748 359.994 454.446C323.146 477.887 285.942 500.617 248.738 523.348C224.409 538.265 213.221 559.753 213.399 588.077C213.665 634.871 213.488 681.575 213.488 728.369C213.399 729.523 213.399 730.855 213.399 733.341Z" fill="white"/>
<path d="M94.7722 484.102C94.6834 482.06 94.5059 480.64 94.5059 479.219C94.5947 385.188 94.5947 291.335 94.5947 197.393C94.5947 193.753 95.6602 192.599 99.3006 192.599C136.327 192.776 173.264 192.687 210.291 192.687C215.352 192.687 216.506 193.753 216.595 198.903C216.684 208.048 216.684 217.283 216.684 226.428C216.684 271.979 216.506 317.529 216.684 363.079C216.684 389.628 205.585 409.162 182.587 422.481C161.455 434.734 140.589 447.431 120.344 460.928C111.643 466.699 104.628 475.046 96.8144 482.238C96.2817 482.682 95.7489 483.126 94.7722 484.102Z" fill="white"/>
<path d="M454.051 392.38C454.318 395.754 454.762 399.129 454.85 402.503C455.206 476.91 455.472 551.318 455.738 625.725C455.738 636.824 451.299 645.704 442.42 652.452C408.235 678.557 374.05 704.75 339.865 730.944C338.977 731.654 337.912 732.187 336.491 733.164C336.402 731.299 336.225 729.878 336.225 728.458C336.225 647.835 336.225 567.212 336.136 486.589C336.136 482.948 337.379 481.083 340.309 479.308C356.025 469.807 371.652 460.306 387.102 450.45C412.23 434.379 436.293 417.331 454.051 392.38Z" fill="white"/>
<path d="M437.82 157.961C433.997 160.094 430.308 161.172 426.753 161.195C423.223 161.158 419.926 160.491 416.862 159.193C412.03 157.145 408.019 154.472 404.829 151.174C401.723 147.841 399.469 144.14 398.066 140.07C396.663 136 396.091 131.691 396.349 127.144C396.633 122.538 397.749 117.936 399.697 113.34C401.695 108.626 404.25 104.565 407.363 101.157C410.5 97.6907 414.031 95.0166 417.957 93.1352C421.882 91.2537 426.122 90.2701 430.676 90.1845C435.29 90.1239 440.012 91.1174 444.844 93.1652C448.085 94.5387 450.996 96.3632 453.577 98.6385C456.241 100.88 458.382 103.455 459.999 106.365C461.675 109.3 462.721 112.489 463.139 115.932C463.556 119.376 463.18 122.97 462.01 126.715L448.751 121.096C449.425 117.211 448.958 113.885 447.35 111.118C445.742 108.351 443.258 106.256 439.9 104.833C436.777 103.509 433.863 103.004 431.158 103.318C428.478 103.572 426.024 104.443 423.794 105.931C421.59 107.361 419.614 109.234 417.867 111.552C416.179 113.895 414.748 116.452 413.574 119.221C412.451 121.873 411.646 124.59 411.162 127.374C410.761 130.124 410.814 132.787 411.32 135.365C411.826 137.943 412.908 140.313 414.563 142.474C416.244 144.577 418.646 146.29 421.769 147.613C426.366 149.561 430.388 149.911 433.837 148.661C437.37 147.378 440.279 144.614 442.564 140.369L428.599 134.451L432.981 124.109L459.498 135.347L445.039 169.466L436.2 165.72L437.82 157.961Z" fill="white"/>
<path d="M330.362 62.9032L345.061 65.7704L364.336 116.381L364.525 116.418L373.328 71.2842L387.179 73.9859L374.057 141.262L359.263 138.376L340.064 87.8787L339.876 87.8419L331.09 132.881L317.239 130.179L330.362 62.9032Z" fill="white"/>
<path d="M266.19 102.679L283.95 102.58L275.17 77.4765L274.978 77.4776L266.19 102.679ZM267.396 60.6237L282.851 60.5374L308.866 128.937L293.218 129.025L287.949 113.79L262.317 113.933L257.026 129.227L241.859 129.311L267.396 60.6237Z" fill="white"/>
<path d="M178.064 107.483C178.661 110.3 179.558 112.989 180.755 115.548C182 118.032 183.569 120.186 185.46 122.009C187.351 123.833 189.594 125.157 192.189 125.981C194.771 126.742 197.721 126.772 201.039 126.069C204.358 125.366 207.043 124.143 209.094 122.4C211.132 120.594 212.645 118.474 213.634 116.04C214.623 113.607 215.153 111.009 215.222 108.246C215.34 105.408 215.101 102.58 214.504 99.7628C213.88 96.8201 212.932 94.0443 211.66 91.4353C210.45 88.8131 208.9 86.5902 207.009 84.7665C205.105 82.8802 202.862 81.5564 200.28 80.795C197.684 79.9709 194.728 79.9104 191.409 80.6134C188.091 81.3165 185.413 82.5708 183.375 84.3764C181.324 86.1194 179.81 88.2391 178.834 90.7355C177.845 93.1693 177.298 95.8366 177.193 98.7374C177.151 101.625 177.441 104.54 178.064 107.483ZM163.32 110.606C162.259 105.598 162.028 100.805 162.629 96.2294C163.216 91.591 164.581 87.3767 166.722 83.5867C168.863 79.7967 171.776 76.5627 175.461 73.8848C179.208 71.1937 183.649 69.3043 188.783 68.2166C193.98 67.1156 198.805 67.0419 203.26 67.9954C207.714 68.949 211.688 70.7238 215.182 73.3201C218.676 75.9163 221.632 79.2153 224.05 83.2171C226.454 87.1562 228.187 91.6302 229.248 96.639C230.283 101.523 230.5 106.252 229.899 110.828C229.285 115.341 227.901 119.462 225.747 123.189C223.593 126.917 220.673 130.119 216.988 132.797C213.29 135.412 208.842 137.271 203.646 138.371C198.512 139.459 193.693 139.564 189.189 138.687C184.735 137.733 180.767 135.989 177.287 133.456C173.806 130.922 170.87 127.717 168.479 123.841C166.074 119.901 164.354 115.49 163.32 110.606Z" fill="white"/>
<path d="M77.5171 109.278L91.2818 103.139L101.997 127.161L127.335 115.859L116.62 91.8369L130.384 85.6971L158.306 148.296L144.542 154.436L132.497 127.432L107.159 138.734L119.204 165.738L105.439 171.877L77.5171 109.278Z" fill="white"/>
</svg>
